# xmcd CD database file
#
# Track frame offsets:
#	187
#	72977
#	132837
#	174832
#
# Disc length: 3260 seconds
#
# Revision: 0
# Processed by: cddbd v1.5.2PL0 Copyright (c) Steve Scherf et al.
# Submitted via: CDex 1.70beta2
#
DISCID=2e0cba04
DTITLE=磯田健一郎 - α波1/fのゆらぎ マジエルの星
DYEAR=1990
DGENRE=New Age
TTITLE0=マジエルのまどろみ
TTITLE1=マシリイの光
TTITLE2=星の誕生
TTITLE3=ビジテリアン前夜祭
EXTD=YEAR: 1990
EXTT0=
EXTT1=
EXTT2=
EXTT3=
PLAYORDER=
